<?xml version="1.0" encoding="UTF-8"?>
<svg xmlns="http://www.w3.org/2000/svg" xmlns:xlink="http://www.w3.org/1999/xlink" width="200pt" height="200pt" viewBox="0 0 200 200" version="1.1">
<g id="surface1">
<path style=" stroke:none;fill-rule:nonzero;fill:rgb(0%,0%,0%);fill-opacity:1;" d="M 91.664062 191.535156 C 41.125 191.535156 0 150.414062 0 99.871094 C 0 49.332031 41.125 8.207031 91.664062 8.207031 C 109.238281 8.207031 126.339844 13.214844 141.113281 22.699219 C 144.011719 24.566406 144.863281 28.433594 142.996094 31.339844 C 141.121094 34.25 137.261719 35.089844 134.355469 33.222656 C 121.605469 25.035156 106.839844 20.707031 91.664062 20.707031 C 48.015625 20.707031 12.5 56.222656 12.5 99.871094 C 12.5 143.519531 48.015625 179.035156 91.664062 179.035156 C 135.3125 179.035156 170.828125 143.519531 170.828125 99.871094 C 170.828125 97.261719 170.703125 94.679688 170.460938 92.140625 C 170.128906 88.699219 172.644531 85.648438 176.078125 85.316406 C 179.527344 84.996094 182.566406 87.5 182.902344 90.933594 C 183.183594 93.875 183.328125 96.855469 183.328125 99.871094 C 183.328125 150.414062 142.203125 191.535156 91.664062 191.535156 Z M 91.664062 191.535156 "/>
<path style=" stroke:none;fill-rule:nonzero;fill:rgb(0%,0%,0%);fill-opacity:1;" d="M 102.082031 120.707031 C 100.480469 120.707031 98.878906 120.097656 97.664062 118.871094 L 60.164062 81.375 C 57.722656 78.933594 57.722656 74.972656 60.164062 72.53125 C 62.605469 70.089844 66.566406 70.089844 69.003906 72.53125 L 102.089844 105.613281 L 189.324219 18.375 C 191.769531 15.933594 195.726562 15.933594 198.167969 18.375 C 200.609375 20.816406 200.609375 24.777344 198.167969 27.214844 L 106.503906 118.878906 C 105.277344 120.097656 103.679688 120.707031 102.082031 120.707031 Z M 102.082031 120.707031 "/>
</g>
</svg>
