<?xml version="1.0" encoding="UTF-8"?>
<svg xmlns="http://www.w3.org/2000/svg" xmlns:xlink="http://www.w3.org/1999/xlink" width="38pt" height="38pt" viewBox="0 0 38 38" version="1.1">
<g id="surface1">
<path style=" stroke:none;fill-rule:nonzero;fill:rgb(0%,0%,0%);fill-opacity:1;" d="M 5.566406 38 L 17.960938 38 L 17.960938 24.492188 L 13.507812 24.492188 L 13.507812 20.039062 L 17.960938 20.039062 L 17.960938 14.472656 C 17.960938 11.402344 20.457031 8.90625 23.527344 8.90625 L 29.09375 8.90625 L 29.09375 13.359375 L 24.640625 13.359375 C 23.414062 13.359375 22.414062 14.359375 22.414062 15.585938 L 22.414062 20.039062 L 28.894531 20.039062 L 28.152344 24.492188 L 22.414062 24.492188 L 22.414062 38 L 32.433594 38 C 35.503906 38 38 35.503906 38 32.433594 L 38 5.566406 C 38 2.496094 35.503906 0 32.433594 0 L 5.566406 0 C 2.496094 0 0 2.496094 0 5.566406 L 0 32.433594 C 0 35.503906 2.496094 38 5.566406 38 Z M 2.226562 5.566406 C 2.226562 3.726562 3.726562 2.226562 5.566406 2.226562 L 32.433594 2.226562 C 34.273438 2.226562 35.773438 3.726562 35.773438 5.566406 L 35.773438 32.433594 C 35.773438 34.273438 34.273438 35.773438 32.433594 35.773438 L 24.640625 35.773438 L 24.640625 26.71875 L 30.035156 26.71875 L 31.519531 17.8125 L 24.640625 17.8125 L 24.640625 15.585938 L 31.320312 15.585938 L 31.320312 6.679688 L 23.527344 6.679688 C 19.230469 6.679688 15.734375 10.175781 15.734375 14.472656 L 15.734375 17.8125 L 11.28125 17.8125 L 11.28125 26.71875 L 15.734375 26.71875 L 15.734375 35.773438 L 5.566406 35.773438 C 3.726562 35.773438 2.226562 34.273438 2.226562 32.433594 Z M 2.226562 5.566406 "/>
</g>
</svg>
