<?xml version="1.0" encoding="UTF-8"?>
<svg xmlns="http://www.w3.org/2000/svg" xmlns:xlink="http://www.w3.org/1999/xlink" width="38pt" height="38pt" viewBox="0 0 38 38" version="1.1">
<g id="surface1">
<path style=" stroke:none;fill-rule:evenodd;fill:rgb(0%,0%,0%);fill-opacity:1;" d="M 31.621094 6.351562 C 28.285156 3.011719 23.851562 1.171875 19.125 1.167969 C 9.390625 1.167969 1.464844 9.09375 1.460938 18.832031 C 1.460938 21.945312 2.273438 24.984375 3.820312 27.664062 L 1.3125 36.816406 L 10.675781 34.359375 C 13.257812 35.765625 16.164062 36.507812 19.117188 36.507812 L 19.125 36.507812 C 28.859375 36.507812 36.785156 28.585938 36.789062 18.847656 C 36.789062 14.125 34.957031 9.6875 31.621094 6.351562 Z M 19.125 33.527344 L 19.121094 33.527344 C 16.484375 33.523438 13.902344 32.816406 11.648438 31.480469 L 11.109375 31.160156 L 5.554688 32.617188 L 7.039062 27.203125 L 6.6875 26.644531 C 5.21875 24.308594 4.441406 21.605469 4.445312 18.832031 C 4.445312 10.738281 11.035156 4.152344 19.132812 4.152344 C 23.050781 4.152344 26.738281 5.683594 29.511719 8.457031 C 32.28125 11.234375 33.808594 14.921875 33.808594 18.84375 C 33.804688 26.941406 27.21875 33.527344 19.125 33.527344 Z M 27.179688 22.53125 C 26.738281 22.308594 24.566406 21.242188 24.164062 21.09375 C 23.757812 20.949219 23.464844 20.875 23.167969 21.316406 C 22.875 21.757812 22.03125 22.75 21.773438 23.046875 C 21.515625 23.339844 21.257812 23.378906 20.816406 23.15625 C 20.375 22.9375 18.953125 22.46875 17.265625 20.964844 C 15.953125 19.796875 15.070312 18.351562 14.8125 17.910156 C 14.554688 17.464844 14.808594 17.25 15.003906 17.007812 C 15.484375 16.414062 15.960938 15.792969 16.109375 15.5 C 16.253906 15.203125 16.183594 14.945312 16.070312 14.726562 C 15.960938 14.503906 15.078125 12.332031 14.710938 11.449219 C 14.351562 10.585938 13.988281 10.703125 13.71875 10.691406 C 13.460938 10.675781 13.167969 10.675781 12.871094 10.675781 C 12.578125 10.675781 12.097656 10.785156 11.695312 11.226562 C 11.289062 11.667969 10.148438 12.738281 10.148438 14.910156 C 10.148438 17.082031 11.730469 19.179688 11.953125 19.476562 C 12.171875 19.769531 15.066406 24.226562 19.492188 26.140625 C 20.542969 26.59375 21.367188 26.863281 22.007812 27.070312 C 23.066406 27.40625 24.027344 27.355469 24.789062 27.242188 C 25.636719 27.117188 27.398438 26.175781 27.765625 25.144531 C 28.132812 24.113281 28.132812 23.230469 28.023438 23.046875 C 27.914062 22.863281 27.621094 22.75 27.179688 22.53125 Z M 27.179688 22.53125 "/>
</g>
</svg>
