<?xml version="1.0" encoding="UTF-8"?>
<svg xmlns="http://www.w3.org/2000/svg" xmlns:xlink="http://www.w3.org/1999/xlink" width="38pt" height="38pt" viewBox="0 0 38 38" version="1.1">
<g id="surface1">
<path style=" stroke:none;fill-rule:nonzero;fill:rgb(0%,0%,0%);fill-opacity:1;" d="M 26.125 0 L 11.875 0 C 5.316406 0 0 5.316406 0 11.875 L 0 26.125 C 0 32.683594 5.316406 38 11.875 38 L 26.125 38 C 32.683594 38 38 32.683594 38 26.125 L 38 11.875 C 38 5.316406 32.683594 0 26.125 0 Z M 34.4375 26.125 C 34.4375 30.707031 30.707031 34.4375 26.125 34.4375 L 11.875 34.4375 C 7.292969 34.4375 3.5625 30.707031 3.5625 26.125 L 3.5625 11.875 C 3.5625 7.292969 7.292969 3.5625 11.875 3.5625 L 26.125 3.5625 C 30.707031 3.5625 34.4375 7.292969 34.4375 11.875 Z M 34.4375 26.125 "/>
<path style=" stroke:none;fill-rule:nonzero;fill:rgb(0%,0%,0%);fill-opacity:1;" d="M 19 9.5 C 13.753906 9.5 9.5 13.753906 9.5 19 C 9.5 24.246094 13.753906 28.5 19 28.5 C 24.246094 28.5 28.5 24.246094 28.5 19 C 28.5 13.753906 24.246094 9.5 19 9.5 Z M 19 24.9375 C 15.726562 24.9375 13.0625 22.273438 13.0625 19 C 13.0625 15.726562 15.726562 13.0625 19 13.0625 C 22.273438 13.0625 24.9375 15.726562 24.9375 19 C 24.9375 22.273438 22.273438 24.9375 19 24.9375 Z M 19 24.9375 "/>
<path style=" stroke:none;fill-rule:nonzero;fill:rgb(0%,0%,0%);fill-opacity:1;" d="M 30.476562 8.789062 C 30.476562 9.488281 29.910156 10.054688 29.210938 10.054688 C 28.511719 10.054688 27.945312 9.488281 27.945312 8.789062 C 27.945312 8.089844 28.511719 7.523438 29.210938 7.523438 C 29.910156 7.523438 30.476562 8.089844 30.476562 8.789062 Z M 30.476562 8.789062 "/>
</g>
</svg>
