<?xml version="1.0" encoding="UTF-8"?>
<svg xmlns="http://www.w3.org/2000/svg" xmlns:xlink="http://www.w3.org/1999/xlink" width="100pt" height="100pt" viewBox="0 0 100 100" version="1.1">
<g id="surface1">
<path style=" stroke:none;fill-rule:nonzero;fill:rgb(0%,0%,0%);fill-opacity:1;" d="M 37.148438 13.101562 C 36.125 13.101562 35.296875 12.273438 35.296875 11.25 L 35.296875 0 L 27.984375 9.402344 L 31.601562 9.402344 C 32.164062 9.402344 32.691406 9.65625 33.042969 10.09375 C 33.394531 10.53125 33.527344 11.101562 33.40625 11.652344 L 31.085938 22.09375 L 40.078125 13.101562 Z M 37.148438 13.101562 "/>
<path style=" stroke:none;fill-rule:nonzero;fill:rgb(0%,0%,0%);fill-opacity:1;" d="M 74.125 20.496094 C 73.105469 20.496094 72.277344 19.667969 72.277344 18.648438 L 72.277344 7.398438 L 64.960938 16.796875 L 68.578125 16.796875 C 69.140625 16.796875 69.671875 17.054688 70.023438 17.492188 C 70.375 17.929688 70.507812 18.5 70.382812 19.046875 L 68.0625 29.492188 L 77.058594 20.496094 Z M 74.125 20.496094 "/>
<path style=" stroke:none;fill-rule:nonzero;fill:rgb(0%,0%,0%);fill-opacity:1;" d="M 14.523438 61.171875 L 29.179688 61.171875 L 24.640625 44.53125 L 12.40625 44.53125 C 11.828125 44.53125 11.289062 44.800781 10.9375 45.257812 C 10.585938 45.71875 10.46875 46.3125 10.625 46.867188 Z M 14.523438 61.171875 "/>
<path style=" stroke:none;fill-rule:nonzero;fill:rgb(0%,0%,0%);fill-opacity:1;" d="M 27.902344 85.210938 L 29.753906 85.210938 L 29.753906 100 L 27.902344 100 Z M 27.902344 85.210938 "/>
<path style=" stroke:none;fill-rule:nonzero;fill:rgb(0%,0%,0%);fill-opacity:1;" d="M 85.65625 64.867188 L 71 64.867188 L 75.539062 81.507812 L 87.773438 81.507812 C 88.351562 81.507812 88.890625 81.242188 89.242188 80.78125 C 89.59375 80.328125 89.710938 79.730469 89.554688 79.175781 Z M 85.65625 64.867188 "/>
<path style=" stroke:none;fill-rule:nonzero;fill:rgb(0%,0%,0%);fill-opacity:1;" d="M 65.453125 44.53125 L 69.992188 61.171875 L 84.648438 61.171875 L 80.480469 45.894531 C 80.261719 45.089844 79.53125 44.53125 78.695312 44.53125 Z M 65.453125 44.53125 "/>
<path style=" stroke:none;fill-rule:nonzero;fill:rgb(0%,0%,0%);fill-opacity:1;" d="M 30.1875 64.867188 L 15.53125 64.867188 L 19.699219 80.148438 C 19.917969 80.953125 20.648438 81.507812 21.484375 81.507812 L 34.726562 81.507812 Z M 30.1875 64.867188 "/>
<path style=" stroke:none;fill-rule:nonzero;fill:rgb(0%,0%,0%);fill-opacity:1;" d="M 81.523438 85.210938 L 83.375 85.210938 L 83.375 100 L 81.523438 100 Z M 81.523438 85.210938 "/>
<path style=" stroke:none;fill-rule:nonzero;fill:rgb(0%,0%,0%);fill-opacity:1;" d="M 71.707031 81.507812 L 67.164062 64.867188 L 52.507812 64.867188 L 57.046875 81.507812 Z M 71.707031 81.507812 "/>
<path style=" stroke:none;fill-rule:nonzero;fill:rgb(0%,0%,0%);fill-opacity:1;" d="M 68.578125 85.210938 L 70.429688 85.210938 L 70.429688 96.304688 L 68.578125 96.304688 Z M 68.578125 85.210938 "/>
<path style=" stroke:none;fill-rule:nonzero;fill:rgb(0%,0%,0%);fill-opacity:1;" d="M 53.21875 81.507812 L 48.679688 64.867188 L 34.023438 64.867188 L 38.5625 81.507812 Z M 53.21875 81.507812 "/>
<path style=" stroke:none;fill-rule:nonzero;fill:rgb(0%,0%,0%);fill-opacity:1;" d="M 16.808594 82.617188 C 16.507812 82.15625 16.28125 81.648438 16.132812 81.117188 L 14.960938 76.828125 L 14.960938 96.304688 L 16.808594 96.304688 Z M 16.808594 82.617188 "/>
<path style=" stroke:none;fill-rule:nonzero;fill:rgb(0%,0%,0%);fill-opacity:1;" d="M 46.964844 44.53125 L 51.5 61.171875 L 66.160156 61.171875 L 61.617188 44.53125 Z M 46.964844 44.53125 "/>
<path style=" stroke:none;fill-rule:nonzero;fill:rgb(0%,0%,0%);fill-opacity:1;" d="M 28.476562 44.53125 L 33.015625 61.171875 L 47.671875 61.171875 L 43.132812 44.53125 Z M 28.476562 44.53125 "/>
</g>
</svg>
